<svg height="500" viewBox="0 0 132.29166 132.29167" width="500" xmlns="http://www.w3.org/2000/svg"><g><path d="m438.55859 2.8828125c-18.66715.0103457-44.37777 13.5365175-54.45312 42.7753905 26.27932-45.09011523 74.36302-10.817971 75.61133-24.519531 1.08814-11.9437618-8.38594-18.2629381-21.15821-18.2558595zm3.74414 33.2949215c-37.64782.358635-85.94877 20.892395-108.61718 70.613286l-125.78711 70.21289c29.66537 25.27976 85.32214 40.73251 122.56445 14.67187 11.13888-7.79453-2.96331-19.84962-15.12891-26.96875 37.84201 6.03381 64.85902 20.66939 79.54883 6.48828 9.06006-8.74634-23.05585-20.92448-39.07617-33.07617 25.49071-5.73072 94.46153 33.78299 82.19727 6.62305-8.56039-18.95749-43.80007-35.36315-86.06055-39.26563 56.24198-16.901431 130.4942 23.40078 130.7832 11.55469.95275-39.052392-71.29132-45.692911-92.82812-41.306641 47.54691-29.505237 105.85741 5.232043 103.65625-11.935547-2.2464-17.520544-23.94648-27.87144-51.25196-27.611328zm-234.40429 140.826176-105.31641.44921c-21.723567 21.98651-43.399148 19.36078-38.20703 26.11915 9.503989 12.37094 40.71647 2.27459 56.40625-11.98243-8.89933 18.48417-23.90436 25.18944-15.13086 28.91602 14.22516 6.04219 27.61165-5.23742 45.01367-19.21094 0 0-14.33386 16.14278-3.84765 19.14258 9.33507 2.67049 53.48317.44251 61.08203-43.43359zm-170.458987-91.726566c-23.033212.194067-30.4739937 32.069396 17.447266 51.330076-31.11209-28.28366-4.082015-50.622444-15.761719-51.287108-.57021-.032449-1.13275-.047626-1.685547-.042968zm-33.0097655 40.363276c-1.9978521-.04851-2.7160452 1.07325-1.9277344 3.8086 8.3348149 28.92088 54.6074219 38.61328 54.6074219 38.61328-13.779069 7.10559-45.410427-2.92012-39.185547 5.94336 18.851256 26.84191 103.586012 8.73374 94.734372-14.5957-49.361949.90918-97.440111-33.50754-108.2285125-33.76954z" fill="#ff9956" stroke="#ff9956" stroke-width=".999999" transform="scale(.26458333)"/><path d="m59.526847 74.221499-1.320339 2.782638c-.829076.995373-3.487851.200897-3.487851.200897-4.105222.63811-4.742096 4.296887-2.185799 5.076125-.369108-.817221.555875-3.095226 2.358873-2.798103-2.826615.122389-3.064665 4.448437-.687008 4.68555-.233703-1.580402.264981-3.54142 1.963683-3.279046-2.522269-.331307-2.522124 4.922318-.265637 4.714732.455655-4.049541 3.223895-6.120217 5.733938-3.555301.245927-.753281.128742-3.474081-2.239644-4.282468l1.911873-3.491521" fill="#b63e2a" stroke="#b63e2a" stroke-width=".264583"/><path d="m54.240234 284.21289c-19.352386.76-29.402209 10.37009-35.197265 22.07227-23.9126111 48.28765 15.020489 112.21213 20.576172 116.67968 0 0-22.285251-7.1365-26.632813-22.15234.304229 41.06891 98.272102 39.92398 98.941402 78.45898 29.17316-107.03675-102.7735363-69.81637-75.794918-170.59375 2.448317-9.14555 8.605622-18.52692 18.107422-24.46484zm117.388676.70899c29.41971 33.59731 18.56154 66.04788-24.2793 109.66796-31.32251 31.89226-22.24114 44.40908-30.04102 90.56055 47.09208-94.40871 82.15004-64.30645 114.27344-88.0957 48.75418-36.10541-42.74634-111.63252-59.95312-112.13281zm-36.25 23.80078c-19.20709-.10538-40.176127 12.10915-44.763676 28.78711-7.870269 28.61227 27.469686 40.64329 38.124996 21.65234-10.68907 3.25013-20.58282-4.74227-14.50781-14.58594 10.05373-16.29063 32.51447-9.90317 31.99414 3.80469-.89348 23.53837-45.34732 32.15153-27.70703 71.58984 12.44931-35.26401 55.1106-50.94528 50.65039-81.14258-3.17174-21.4739-17.87658-30.01816-33.79101-30.10546zm194.08593 63.17773c-63.72722 117.70746-153.63559 4.87083-205.73046 109.60352 44.17049-48.07132 96.67089 10.72333 144.96484-6.70899 54.49961-19.67233 74.06157-83.06429 60.76562-102.89453z" fill="#ffaf98" stroke="#ffaf98" stroke-width="2" transform="scale(.26458333)"/><path d="m99.727762 12.770797c-1.470147-.119685-2.59275 8.526821-26.88518 18.915124-3.502295 1.4977-3.919519 6.665467-11.945524 9.828342-.435206-.677067-.903502-1.36279-1.412833-2.058274l-8.006747 3.894336c-3.317224-.182705-6.100199-1.296397-8.202602-1.364773-6.912321-.224796-11.968337 2.248183-16.832563 2.135785-4.864229-.112398-8.951678-7.192065-9.89862-5.803262-1.305272 1.914342-.198995 6.164561 2.173511 7.526155-4.162793 4.446436 14.207112 5.497242 15.764928 3.256647-.634622 2.691424 6.284397 2.328349 12.013737 1.671217-.446701 5.816029.361267 13.461566 5.305102 16.069821 1.291251 7.248868 5.291563 5.947155 5.838404 9.663493 2.332527-1.330772 2.777175-.183034 3.253031.479039.735997.04907 4.341225-4.843846 1.894459-11.301635 0 0 1.081376-3.228792 1.457095-2.77195 1.497166-3.508028 1.796534-10.367166-.163118-15.253824 11.586818-2.969514 23.742424-7.738718 22.797576-10.644828 12.693822-3.132859 14.599302-13.184326 10.748698-12.15998 5.338884-4.68043 5.276044-10.658366 2.244823-12.042159-.04894-.02234-.09675-.03541-.144177-.03927z" fill="#f17422" stroke="#f17422" stroke-width=".264583"/><path d="m65.534936 66.955985-1.320339 2.782638c-.829076.995373-3.487851.200897-3.487851.200897-4.105222.63811-4.742096 4.296887-2.185799 5.076125-.369108-.817221.555875-3.095226 2.358873-2.798103-2.826615.122389-3.064665 4.448437-.687008 4.68555-.233703-1.580402.264981-3.54142 1.963683-3.279046-2.522269-.331307-2.522124 4.922318-.265637 4.714732.455655-4.049541 3.223895-6.120217 5.733938-3.555301.245927-.753281.128742-3.474081-2.239644-4.282468l1.911873-3.491521" fill="#b63e2a" stroke="#ff9956" stroke-width=".529167"/><g stroke-width=".264583"><path d="m61.227252 59.313763 4.92485 5.328586.07547 3.318983c17.816463 12.497322 18.823046 8.230331 32.646616 15.039952 5.189112 2.556214 10.677882 7.876419 13.351192 13.350321 4.65558 9.532785 9.98244 29.400845-3.96207 29.400845-6.40691 0-9.083095-8.61516-4.31334-12.0871 1.99226-1.4502 6.81064-.31985 4.81609 5.57417 6.74289-6.14783-.2149-12.49-6.90256-9.57607-7.548435 3.289-7.907463 19.57985 5.82935 21.55096 14.87918 2.13503 16.5032-17.38516 9.72929-33.636783-2.92844-7.025776-6.39151-12.836942-16.58301-17.627295-13.725485-6.451442-18.138982-4.035026-34.160971-14.951464 10.219072 6.735923 32.529672 9.808407 38.218491 12.065305 5.79576 2.299329 18.68362 9.98806 21.82027 24.650637.51738 2.41848.96519 5.99458-.72305 9.76011 3.58282-1.15317 4.7968-5.06103 4.56638-7.98967-1.18886-15.111563-9.56069-24.381958-23.95669-29.604121-14.293081-5.184827-36.665994-5.639271-45.376308-14.567366z" fill="#f17422" stroke="#f17422"/><path d="m60.685565 56.245425c2.761568-1.238053 4.613408.270119 5.84466 3.034727 1.104321 2.4796 2.759389 6.254152.899179 10.677746 0 0-2.844422-1.802221-3.114201-.204771-3.634828-.472449-5.601294-3.284834-6.102378-5.302697-.556977-2.242944.363903-7.259581 2.47274-8.205005z" fill="#ff9956" stroke="#ff9956"/><path d="m1.8810413 110.20319c-3.308684 2.22368 11.7441117 6.92312 21.4293027 13.04503 2.548072 1.61061 3.799853 3.82185 4.989581 5.08893-.906907.68972 1.805714.68878 2.754494.82401.933697.13308 3.317465.82115 2.829319-.0213 0 0 1.941159-1.41356 8.261944-1.63355 7.035128-.24486 28.94155 4.00303 28.432141.68525-10.732616.26099-21.272064-2.29798-28.377376-2.33706-6.44316-.0354-9.288377 1.80459-9.288377 1.80459l-3.450451-.68862s-3.207822-2.98366-5.173742-4.4574c-6.919082-5.18686-19.4075751-8.15552-22.4068357-12.30988z" fill="#556f58" stroke="#556f58"/><path d="m29.800152 125.74043c-.47425-.025-.878935.33927-.903891.81352-.02495.47425.339275.87894.813527.90389.324922.0169.631567-.151.792321-.43388.06769.39625.400877.69272.802305.7139.324624.0168.630979-.15088.791777-.43338.06794.39624.401368.69252.80285.71341.474249.025.878934-.33927.903891-.81352.02495-.47425-.339276-.87894-.813527-.90389-.324803-.017-.631407.15069-.792295.43336-.06791-.39605-.401055-.69227-.802332-.71339-.324802-.017-.631407.15069-.792294.43336-.06791-.39605-.401058-.69226-.802332-.71338z" fill="#b63e2a" stroke="#b63e2a" stroke-linejoin="round"/><path d="m25.77052 1.1906254c-4.66982.0019-10.042153 1.406867-12.597681 6.266284-4.8592536 9.2400266-.391327 16.3390686 7.44399 15.7163546 5.594112-.444594 4.949361-6.822252 2.238623-7.603671-1.554046-.447982-3.316593.346749-3.316593.346749s2.452098.169692 2.572969 1.918746c.122965 1.779347-1.314217 2.608139-3.158463 2.006596-3.013282-.98285-3.405848-4.63783-1.750281-8.143689 1.66916-3.5346446 6.244391-6.6135286 13.127365-5.4213746 6.605098 1.144025 12.720415 12.6775226 15.661058 15.6181686 2.459818 2.459818 3.54639 2.469212 3.836974 2.406571-2.65761.875853-7.971052-1.809095-9.66194-4.997111-1.567265-2.954927-5.984965-6.586917-8.69301-5.243608 0 0 2.706735.198902 4.689118 4.003374 3.018546 5.415279 6.65177 8.100012 12.333615 7.938017-4.270261 1.349468-7.071968.867843-10.622608-1.255738.42354 1.192462 3.507547 6.123237 10.1384 3.701583-.798552 1.297191-.761103 5.540121.12378 4.244136.09011 2.320213 1.111983 6.386843-.170746 9.370536-1.457095-.790781-2.017446-1.904084-3.612243-1.955953-6.912321-.224793-11.968337 2.248185-16.832564 2.135788-4.864229-.112398-8.450646-3.736724-8.450646-3.736724-.759668 3.043709 2.387266 7.568332 11.783777 6.491079 3.475003-.398389 8.208706-2.301053 12.923758-2.294951 1.349788.0019 2.700486.351337 4.048331.761709-1.685589 4.497826-.0031 9.189505 2.511394 12.481395.29306-5.850008 3.40755-10.313767 7.280256-12.006487 10.77872-4.711263 13.924737-10.422413 17.584975-12.542387 6.134312-3.552936 24.152578-9.395413 22.204848-17.108517-6.49427 10.182873-17.524101 10.054745-24.572662 14.804263-2.936409 1.978636-4.949108 7.732416-12.512932 11.316623-.3-.452654-.666115-1.389991-.992187-3.335713-.247216-1.47516 1.99232-4.29573 1.641761-6.861598.63773-1.84422 2.168615-1.016942 3.542419-3.878315-1.64632.874043-4.240052 1.178739-4.240052 1.178739s1.002904-2.402548 3.163115-3.688664c-2.648145-.213177-2.552155.85061-4.677235.811321-1.802757-2.654915-5.677051-2.229181-7.210412-1.681552-1.594559-.344419-3.023377-2.412982-3.701065-3.528983-2.382187-3.922929-7.508232-14.3356136-15.190288-17.1643276-1.536004-.565593-4.085026-1.06979-6.886918-1.068669z" fill="#b63e2a" stroke="#b63e2a"/></g><path d="m-105.83331-39.6875h26.458334v26.458334h-26.458334z" fill="#ffaf98" transform="scale(-1 1)"/><path d="m-79.374969-39.6875h26.458334v26.458334h-26.458334z" fill="#ff9956" transform="scale(-1 1)"/><path d="m-26.458334-39.6875h26.458334v26.458334h-26.458334z" fill="#b63e2a" transform="scale(-1 1)"/><path d="m-132.29166-39.6875h26.458334v26.458334h-26.458334z" fill="#556f58" transform="scale(-1 1)"/><path d="m-52.916653-39.6875h26.458334v26.458334h-26.458334z" fill="#f17422" transform="scale(-1 1)"/></g></svg>